<?xml version="1.0" standalone="no"?>
<!DOCTYPE svg PUBLIC "-//W3C//DTD SVG 20010904//EN"
 "http://www.w3.org/TR/2001/REC-SVG-20010904/DTD/svg10.dtd">
<svg version="1.0" xmlns="http://www.w3.org/2000/svg"
 width="512.000000pt" height="512.000000pt" viewBox="0 0 512.000000 512.000000"
 preserveAspectRatio="xMidYMid meet">
<metadata>
Created by potrace 1.14, written by Peter Selinger 2001-2017
</metadata>
<g transform="translate(0.000000,512.000000) scale(0.100000,-0.100000)"
fill="#000000" stroke="none">
<path d="M0 2560 l0 -2560 2560 0 2560 0 0 2560 0 2560 -2560 0 -2560 0 0
-2560z m2967 1379 c338 -37 646 -206 801 -438 99 -149 121 -331 45 -390 -25
-20 -38 -21 -387 -21 -396 0 -394 0 -433 60 -42 66 -65 91 -107 113 -36 19
-56 22 -161 22 -116 0 -123 -1 -188 -33 -52 -26 -72 -42 -92 -76 -32 -54 -33
-113 -4 -150 44 -56 208 -111 468 -157 521 -92 760 -259 811 -568 32 -195 -42
-481 -174 -665 -224 -315 -661 -472 -1255 -453 -284 9 -456 47 -651 144 -102
51 -126 68 -205 148 -102 102 -146 178 -172 299 -16 76 -13 184 7 227 26 57
37 59 405 59 387 0 381 1 445 -86 75 -101 157 -134 328 -134 253 1 402 79 402
210 0 93 -92 135 -462 211 -231 47 -348 83 -461 139 -186 93 -297 215 -350
385 -44 141 -22 358 54 541 107 257 334 453 636 547 211 67 474 91 700 66z"/>
</g>
</svg>
